<svg width="98" height="108" viewBox="0 0 98 108" fill="none" xmlns="http://www.w3.org/2000/svg">
<g filter="url(#filter0_d_52_13)">
<path d="M47 1.73205C48.8564 0.660253 51.1436 0.660254 53 1.73205L90.3013 23.268C92.1577 24.3397 93.3013 26.3205 93.3013 28.4641V71.5359C93.3013 73.6795 92.1577 75.6603 90.3013 76.7321L53 98.268C51.1436 99.3397 48.8564 99.3397 47 98.2679L9.69873 76.732C7.84232 75.6603 6.69873 73.6795 6.69873 71.5359V28.4641C6.69873 26.3205 7.84232 24.3397 9.69873 23.2679L47 1.73205Z" fill="#ECD36C"/>
<path d="M52.25 3.03109L89.5513 24.567C90.9436 25.3708 91.8013 26.8564 91.8013 28.4641V71.5359C91.8013 73.1436 90.9436 74.6292 89.5513 75.433L52.25 96.9689C50.8577 97.7728 49.1423 97.7728 47.75 96.9689L10.4487 75.433C9.05642 74.6292 8.19873 73.1436 8.19873 71.5359V28.4641C8.19873 26.8564 9.05643 25.3708 10.4487 24.567L47.75 3.03109C49.1423 2.22724 50.8577 2.22724 52.25 3.03109Z" stroke="#E68282" stroke-width="3"/>
</g>
<path d="M43.1971 72.752V72.878C43.1971 76.322 41.9371 79.15 37.9331 81.124L38.5631 82.02C43.0991 79.766 44.3311 76.406 44.3311 72.752H43.1971ZM38.6191 72.752V73.69H43.8831V72.752H38.6191ZM43.0151 75.888L37.9891 76.224L38.1711 77.26L43.0151 76.784V75.888ZM46.3751 71.422V84.092H47.5511V71.422H46.3751ZM47.2291 76.56V77.526H49.5671V76.56H47.2291ZM60.388 71.436V84.092H61.508V71.436H60.388ZM56.216 76.252V77.274H58.316V76.252H56.216ZM57.938 71.744V83.434H59.044V71.744H57.938ZM50.812 73.032V73.984H56.594V73.032H50.812ZM50.7 80.984C52.324 80.984 54.97 80.928 56.944 80.55L56.86 79.696C54.942 79.948 52.198 80.004 50.56 80.004L50.7 80.984ZM51.848 73.648V80.27H52.912V73.648H51.848ZM54.48 73.648V80.27H55.544V73.648H54.48Z" fill="#24221B"/>
<g clip-path="url(#clip0_52_13)">
<path d="M29.3123 59.357C29.3123 62.4931 37.2776 65.0349 47.1034 65.0349C56.9293 65.0349 64.8946 62.4931 64.8946 59.357C64.8946 56.2209 56.9293 53.6791 47.1034 53.6791C37.2776 53.6786 29.3123 56.2209 29.3123 59.357Z" fill="#E26969"/>
<path d="M47.5624 65.9943C38.3808 65.9943 28.6217 63.668 28.6217 59.357C28.6217 55.046 38.3808 52.7196 47.5624 52.7196C56.7441 52.7196 66.5031 55.0455 66.5031 59.357C66.5031 63.6684 56.7446 65.9943 47.5624 65.9943ZM47.5624 54.6381C37.252 54.6381 30.9209 57.3863 30.9209 59.3565C30.9209 61.3268 37.252 64.075 47.5624 64.075C57.8728 64.075 64.2039 61.3268 64.2039 59.3565C64.2039 57.3863 57.8728 54.6381 47.5624 54.6381Z" fill="#4C2F1B"/>
<path d="M61.1688 53.7914C60.764 53.7914 60.3859 53.7013 60.0891 53.4985C59.5492 53.1606 59.279 52.5973 59.4141 51.9888L60.9262 44.0576C61.0613 43.4042 61.5741 42.8182 62.3027 42.5253C62.7346 42.345 65.0296 41.4888 67.1896 41.4888C68.4852 41.4888 69.5383 41.7817 70.2941 42.3899C71.6711 43.4717 71.9413 45.3418 71.077 47.9555C69.8893 51.5156 68.1347 52.1463 65.3807 52.7549C64.4898 52.9578 63.4101 53.1828 62.0059 53.656L61.7629 53.7235C61.5741 53.7688 61.3581 53.7914 61.1688 53.7914ZM64.0845 49.5331C64.4084 49.4656 64.7323 49.3981 65.0025 49.3529C66.7843 48.9924 66.7843 48.9924 67.3241 47.4379C67.864 45.8385 67.648 45.2299 67.5401 45.1398C67.5401 45.1398 67.405 45.0497 66.946 45.0497C66.4332 45.0497 65.6769 45.1847 64.894 45.4102L64.0845 49.5331Z" fill="#F96B6B"/>
<path d="M67.1896 42.2326C68.1347 42.2326 69.0522 42.4128 69.7 42.9313C70.8339 43.8098 71.0228 45.4322 70.2404 47.7755C69.133 51.0426 67.7023 51.5158 65.1376 52.0565C64.2467 52.2594 63.1128 52.5071 61.6549 52.9803C61.6007 53.0029 61.5469 53.0029 61.5198 53.0255C61.4118 53.0482 61.2767 53.0708 61.1688 53.0708C60.9528 53.0708 60.764 53.0255 60.6018 52.9132C60.3321 52.733 60.197 52.44 60.2508 52.1022L61.7629 44.1711C61.8437 43.7431 62.1948 43.3601 62.6538 43.1798C63.0048 43.0436 65.1913 42.2326 67.1896 42.2326ZM63.0319 50.5242C63.8957 50.2987 64.5977 50.1637 65.2184 50.051C67.3513 49.623 67.4863 49.6004 68.1613 47.6402C68.5394 46.5588 68.8091 45.1392 68.107 44.6208C67.8369 44.4179 67.4321 44.3504 66.946 44.3504C66.0822 44.3504 64.9749 44.6208 64.1382 44.8911L63.0319 50.5242ZM67.1896 40.813C64.8408 40.813 62.3841 41.7145 61.9251 41.917C60.9534 42.3001 60.2242 43.0889 60.0625 43.99L58.5509 51.9211C58.3892 52.7774 58.7668 53.6332 59.5769 54.1291C60.0359 54.3994 60.5757 54.557 61.1693 54.557C61.4395 54.557 61.7097 54.5348 61.9793 54.4669C62.0873 54.4442 62.1953 54.4216 62.3032 54.3768C63.6531 53.9258 64.7334 53.7007 65.57 53.5205C68.54 52.8671 70.5643 52.1688 71.8876 48.2252C72.8593 45.3412 72.5088 43.2234 70.8616 41.9387C69.9431 41.1734 68.7011 40.813 67.1896 40.813ZM65.6508 45.9502C66.0827 45.8375 66.4875 45.77 66.8119 45.77C66.8119 46.0177 66.7577 46.4909 66.488 47.2571C66.38 47.55 66.1641 48.1808 66.029 48.3837C65.8673 48.4512 65.5158 48.5191 65.1381 48.5865L65.6508 45.9502Z" fill="#4C2F1B"/>
<path d="M64.4626 43.7197L47.7783 43.9674H30.851C30.851 43.9674 29.6091 60.2803 47.7783 60.2803C65.9476 60.2803 64.4626 43.7197 64.4626 43.7197Z" fill="#FF7171"/>
<path d="M47.6724 61.2401C42.216 61.2401 37.8711 59.8323 34.7572 57.0558C29.693 52.5528 29.524 45.9129 29.5929 43.9848L29.5955 43.8999C29.6383 43.4071 30.1437 43.0084 30.7451 43.0084H47.6724L64.3364 42.7603C64.9806 42.7603 65.4641 43.1412 65.5074 43.6466C65.5741 44.4959 66.0024 52.0814 60.4787 57.0571C57.3903 59.8327 53.0814 61.2401 47.6724 61.2401ZM31.8947 45.1689C31.9703 47.2093 32.5655 52.3252 36.4529 55.7551C39.1224 58.1211 42.9061 59.3208 47.699 59.3208C52.4304 59.3208 56.1604 58.128 58.7845 55.7764C62.6725 52.2764 63.2097 47.0329 63.2603 44.9412L63.2661 44.6974L47.721 44.9273H31.8858L31.8947 45.1689Z" fill="#4C2F1B"/>
<path d="M30.6351 44.2156C30.6351 48.0481 38.2139 51.1555 47.5624 51.1555C56.911 51.1555 64.4898 48.0481 64.4898 44.2156C64.4898 40.3825 56.9115 37.2756 47.5624 37.2756C38.2139 37.2756 30.6351 40.3825 30.6351 44.2156Z" fill="#D6E6EA"/>
<path d="M30.6351 44.2156C30.6351 48.0481 38.2139 51.1555 47.5624 51.1555C56.911 51.1555 64.4898 48.0481 64.4898 44.2156C64.4898 40.3825 56.9115 37.2756 47.5624 37.2756C38.2139 37.2756 30.6351 40.3825 30.6351 44.2156Z" fill="#FCDCD6"/>
<path d="M47.2928 40.723C39.5173 40.723 34.0103 42.9763 31.8504 45.5225C32.0935 49.3302 38.3839 51.1555 47.5896 51.1555C56.0665 51.1555 62.0873 50.0742 63.3558 46.6943C62.0602 43.6745 55.9586 40.723 47.2928 40.723Z" fill="#724E3B"/>
<path d="M47.5624 52.1145C37.4257 52.1145 29.4855 48.6449 29.4855 44.2155C29.4855 39.7861 37.4257 36.3162 47.5624 36.3162C57.6991 36.3162 65.6394 39.7861 65.6394 44.2155C65.6394 48.6449 57.6991 52.1145 47.5624 52.1145ZM47.5624 38.2351C38.1247 38.2351 31.7847 41.3272 31.7847 44.2155C31.7847 47.0443 38.2645 50.1956 47.5624 50.1956C56.8604 50.1956 63.3397 47.0438 63.3397 44.2155C63.3402 41.3272 57.0002 38.2351 47.5624 38.2351Z" fill="#4C2F1B"/>
<path d="M36.8176 46.356C36.8176 46.356 43.567 45.8828 44.9435 45.6351C46.2934 45.387 48.6693 45.4323 50.208 45.387C51.7467 45.3422 56.6064 45.8602 56.6064 45.8602C56.6064 45.8602 51.5041 45.9277 51.2882 45.8602C51.0723 45.7927 45.8886 46.4235 45.8886 46.4235L36.8176 46.356ZM37.5739 44.1028C37.5739 44.1028 41.2991 42.4355 42.6495 42.21C43.9994 41.9623 46.3748 42.0072 47.914 41.9623C49.4527 41.9171 52.5578 42.2327 52.5578 42.2327C52.5578 42.2327 49.2102 42.503 48.9942 42.4355C48.7783 42.3681 44.3233 43.4046 44.3233 43.4046L37.5739 44.1028ZM43.216 49.082C43.216 49.082 45.0786 48.9919 46.4285 48.7442C47.7784 48.4965 50.1543 48.5414 51.693 48.4965C53.2317 48.4739 54.3927 48.2937 54.3927 48.2937C54.3927 48.2937 52.9078 48.8121 52.4488 48.9471C52.2328 49.0146 48.9123 49.4656 48.9123 49.4656L43.216 49.082Z" fill="#9B6F5C"/>
<path d="M41.875 33.403C41.6862 33.403 41.4702 33.3356 41.308 33.2228C40.957 32.9525 40.9027 32.5015 41.2272 32.209C42.2798 31.2177 41.9292 30.4289 41.6591 30.0685C41.5782 29.9557 41.4431 29.843 41.308 29.708C40.6602 29.0546 39.4183 27.8605 41.1192 25.9451C41.3894 25.6295 41.9292 25.562 42.3069 25.7875C42.685 26.0126 42.7659 26.4631 42.4957 26.7787C41.6048 27.7926 41.983 28.1535 42.6037 28.7616C42.7654 28.9192 42.9276 29.0772 43.0627 29.2575C43.4137 29.708 44.4126 31.3078 42.4957 33.1327C42.3611 33.3129 42.1181 33.403 41.875 33.403Z" fill="#4C2F1B"/>
<path d="M44.5527 33.403C44.3638 33.403 44.1474 33.3356 43.9857 33.2228C43.6347 32.9525 43.5809 32.5019 43.9048 32.209C44.9579 31.2177 44.6069 30.4289 44.3367 30.0685C44.2559 29.9557 44.1208 29.8434 43.9857 29.708C43.3379 29.0546 42.096 27.8601 43.7969 25.9451C44.0671 25.6295 44.6069 25.562 44.9845 25.7875C45.3627 26.013 45.4436 26.4636 45.1734 26.7792C44.2825 27.793 44.6601 28.1535 45.2813 28.7621C45.443 28.9197 45.6052 29.0777 45.7403 29.2579C46.0914 29.7085 47.0902 31.3083 45.1734 33.1331C45.0383 33.3356 44.7952 33.403 44.5527 33.403Z" fill="#4C2F1B"/>
<path d="M54.4022 33.403C54.2134 33.403 53.9974 33.3356 53.8352 33.2228C53.4842 32.9525 53.4299 32.5015 53.7538 32.209C54.8069 31.2177 54.4559 30.4289 54.1857 30.0685C54.1049 29.9557 53.9698 29.843 53.8347 29.708C53.1869 29.0546 51.9449 27.8605 53.6459 25.9451C53.9161 25.6295 54.4559 25.562 54.8341 25.7875C55.2122 26.0126 55.2931 26.4631 55.0229 26.7787C54.132 27.7926 54.5096 28.1535 55.1309 28.7616C55.2926 28.9192 55.4548 29.0772 55.5899 29.2575C55.9409 29.708 56.9398 31.3078 55.0229 33.1327C54.8878 33.3129 54.6453 33.403 54.4022 33.403Z" fill="#4C2F1B"/>
<path d="M47.8326 53.4535C46.3476 53.4988 45.187 54.5353 44.8089 55.4364C44.2148 56.856 45.2945 57.667 46.2396 57.667C46.8337 57.667 47.5353 56.856 47.2656 56.0899C46.8066 54.8727 49.0474 53.4083 47.8326 53.4535ZM47.8326 57.802C49.3175 57.7567 50.3701 56.7206 50.7483 55.8191C51.3424 54.3995 50.2627 53.5885 49.2362 53.5885C48.858 53.5885 48.0485 53.9938 48.291 55.1657C48.5612 56.4277 46.6178 57.8473 47.8326 57.802Z" fill="white"/>
</g>
<defs>
<filter id="filter0_d_52_13" x="2.69873" y="0.928223" width="94.6025" height="106.144" filterUnits="userSpaceOnUse" color-interpolation-filters="sRGB">
<feFlood flood-opacity="0" result="BackgroundImageFix"/>
<feColorMatrix in="SourceAlpha" type="matrix" values="0 0 0 0 0 0 0 0 0 0 0 0 0 0 0 0 0 0 127 0" result="hardAlpha"/>
<feOffset dy="4"/>
<feGaussianBlur stdDeviation="2"/>
<feComposite in2="hardAlpha" operator="out"/>
<feColorMatrix type="matrix" values="0 0 0 0 0 0 0 0 0 0 0 0 0 0 0 0 0 0 0.25 0"/>
<feBlend mode="normal" in2="BackgroundImageFix" result="effect1_dropShadow_52_13"/>
<feBlend mode="normal" in="SourceGraphic" in2="effect1_dropShadow_52_13" result="shape"/>
</filter>
<clipPath id="clip0_52_13">
<rect width="43.8021" height="40.0497" fill="white" transform="translate(28.6217 25.6547)"/>
</clipPath>
</defs>
</svg>
