<svg width="100" height="108" viewBox="0 0 100 108" fill="none" xmlns="http://www.w3.org/2000/svg">
<g filter="url(#filter0_d_52_16)">
<path d="M47 1.73205C48.8564 0.660253 51.1436 0.660254 53 1.73205L90.3013 23.268C92.1577 24.3397 93.3013 26.3205 93.3013 28.4641V71.5359C93.3013 73.6795 92.1577 75.6603 90.3013 76.7321L53 98.268C51.1436 99.3397 48.8564 99.3397 47 98.2679L9.69873 76.732C7.84232 75.6603 6.69873 73.6795 6.69873 71.5359V28.4641C6.69873 26.3205 7.84232 24.3397 9.69873 23.2679L47 1.73205Z" fill="#ECD36C"/>
<path d="M52.25 3.03109L89.5513 24.567C90.9436 25.3708 91.8013 26.8564 91.8013 28.4641V71.5359C91.8013 73.1436 90.9436 74.6292 89.5513 75.433L52.25 96.9689C50.8577 97.7728 49.1423 97.7728 47.75 96.9689L10.4487 75.433C9.05642 74.6292 8.19873 73.1436 8.19873 71.5359V28.4641C8.19873 26.8564 9.05643 25.3708 10.4487 24.567L47.75 3.03109C49.1423 2.22724 50.8577 2.22724 52.25 3.03109Z" stroke="#E68282" stroke-width="3"/>
</g>
<path d="M41.9451 77.764V79.976H43.1071V77.764H41.9451ZM36.8071 77.358V78.296H48.2451V77.358H36.8071ZM42.5191 79.626C39.8031 79.626 38.1791 80.424 38.1791 81.852C38.1791 83.266 39.8031 84.064 42.5191 84.064C45.2351 84.064 46.8591 83.266 46.8591 81.852C46.8591 80.424 45.2351 79.626 42.5191 79.626ZM42.5191 80.522C44.5071 80.522 45.6831 80.998 45.6831 81.852C45.6831 82.692 44.5071 83.168 42.5191 83.168C40.5451 83.168 39.3551 82.692 39.3551 81.852C39.3551 80.998 40.5451 80.522 42.5191 80.522ZM41.7771 72.472V72.85C41.7771 74.292 39.7191 75.426 37.4511 75.664L37.8711 76.588C40.4891 76.266 42.8131 74.894 42.8131 72.85V72.472H41.7771ZM42.2671 72.472V72.85C42.2671 74.894 44.5771 76.266 47.1951 76.588L47.6151 75.664C45.3471 75.426 43.2891 74.292 43.2891 72.85V72.472H42.2671ZM37.8571 72.01V72.948H47.2231V72.01H37.8571ZM52.99 72.038V73.27C52.99 75.16 51.716 76.91 49.798 77.61L50.386 78.534C52.528 77.722 53.956 75.664 53.956 73.27V72.038H52.99ZM53.2 72.038V73.27C53.2 75.594 54.628 77.526 56.742 78.296L57.33 77.386C55.454 76.728 54.152 75.09 54.152 73.27V72.038H53.2ZM51.618 79.696V80.648H58.898V84.092H60.074V79.696H51.618ZM58.898 71.436V79.052H60.074V71.436H58.898Z" fill="#24221B"/>
<g clip-path="url(#clip0_52_16)">
<path d="M62.4333 40.7381C58.5529 37.7732 56.7606 34.7769 55.9586 33.0304C55.6655 32.3707 53.61 32.5609 52.3413 32.7617C51.6791 32.8578 50.9644 32.7483 50.3613 32.4584C49.183 31.8829 47.3065 31.0906 46.8293 31.6323C45.5653 33.0846 42.9584 35.4072 38.3448 37.0491C28.306 40.6702 17.8613 57.0471 46.9273 61.4983C75.9927 65.9494 70.9283 47.1974 62.4333 40.7381Z" fill="#FCFBE2"/>
<path d="M28.1273 49.5542C28.1273 49.5542 27.0091 59.0628 46.8347 62.0989C66.6609 65.1352 68.4395 55.7277 68.4395 55.7277C68.4395 55.7277 62.1674 61.769 47.2354 59.4823C32.3046 57.1958 28.1273 49.5542 28.1273 49.5542Z" fill="#EDE6AB"/>
<path d="M37.5311 42.5436C37.4213 42.5267 37.3147 42.4882 37.2075 42.4501C36.7355 42.2242 36.5782 41.7833 36.8022 41.422C39.1511 38.0283 45.3079 36.6006 45.5686 36.5528C46.0626 36.4531 46.5928 36.6658 46.7568 37.0639C46.9213 37.462 46.6902 37.8655 46.1934 37.987C46.1352 38.0003 40.4785 39.2848 38.4836 42.2061C38.2998 42.4859 37.9163 42.6025 37.5311 42.5436ZM44.2016 44.3774C44.0918 44.3606 44.0124 44.3263 43.9058 44.2883C43.4305 44.084 43.2454 43.6384 43.4422 43.2734C45.123 40.5676 46.9722 39.3364 47.037 39.2803C47.4132 39.0305 48.0246 39.0803 48.367 39.418C48.7127 39.7345 48.6954 40.2146 48.292 40.4602C48.2609 40.4777 46.6273 41.5882 45.1301 44.0147C44.9737 44.2981 44.5868 44.4364 44.2016 44.3774ZM61.4229 46.5975C61.0106 46.5343 60.6854 46.2653 60.5977 45.9223C59.7899 41.826 55.4881 39.4109 55.4358 39.3807C54.9949 39.1378 54.868 38.6795 55.1436 38.3482C55.4192 38.017 55.9926 37.9516 56.4336 38.1945C56.6402 38.3139 61.4902 41.0104 62.4443 45.8095C62.5228 46.2166 62.1851 46.5822 61.6737 46.6132C61.5883 46.6228 61.5056 46.6101 61.4229 46.5975ZM55.1189 46.0493C54.7066 45.9862 54.3815 45.7167 54.2898 45.3957C53.7038 42.6063 52.3774 40.9765 52.3536 40.9507C52.0694 40.5998 52.1661 40.154 52.5934 39.9337C53.0179 39.7351 53.5917 39.8452 53.9037 40.1999C53.9765 40.277 55.4931 42.1335 56.1396 45.2617C56.2181 45.6689 55.8805 46.0339 55.3697 46.0656C55.287 46.0529 55.201 46.0619 55.1189 46.0493Z" fill="#4C2F1B"/>
<path d="M55.1794 32.6037C55.5917 32.6669 55.881 32.7988 55.989 33.0129C56.7605 34.777 58.5528 37.7738 62.4636 40.7211C70.9587 47.1805 76.0508 65.9367 46.9577 61.4813C17.8645 57.026 28.306 40.6703 38.3447 37.0497C42.9338 35.3819 45.5407 33.0593 46.8292 31.6329C46.9964 31.4609 47.3119 31.4216 47.7242 31.4847C48.5216 31.6068 49.6032 32.0799 50.389 32.4633C50.7028 32.6212 51.0258 32.7145 51.356 32.765C51.6862 32.8156 52.0223 32.8232 52.3689 32.7665C53.1813 32.6051 54.382 32.4816 55.1794 32.6037ZM55.5506 30.1801C54.5328 30.0243 53.2903 30.0537 51.7053 30.2938C50.2655 29.5905 49.0887 29.1905 48.071 29.0347C45.7337 28.6768 44.5969 29.6658 44.1911 30.1086C43.2065 31.2091 40.9719 33.303 36.8622 34.7811C29.8895 37.313 23.4639 44.5379 25.0699 51.3246C26.1136 55.7206 30.6891 61.4915 46.5556 63.9214C62.422 66.3512 68.5155 62.2141 70.8269 58.3319C74.36 52.3538 70.4215 43.5197 64.526 39.0171C61.0464 36.3767 59.5415 33.7102 58.9307 32.3653C58.6766 31.822 57.8607 30.5339 55.5506 30.1801Z" fill="#4C2F1B"/>
</g>
<defs>
<filter id="filter0_d_52_16" x="2.69873" y="0.928223" width="94.6025" height="106.144" filterUnits="userSpaceOnUse" color-interpolation-filters="sRGB">
<feFlood flood-opacity="0" result="BackgroundImageFix"/>
<feColorMatrix in="SourceAlpha" type="matrix" values="0 0 0 0 0 0 0 0 0 0 0 0 0 0 0 0 0 0 127 0" result="hardAlpha"/>
<feOffset dy="4"/>
<feGaussianBlur stdDeviation="2"/>
<feComposite in2="hardAlpha" operator="out"/>
<feColorMatrix type="matrix" values="0 0 0 0 0 0 0 0 0 0 0 0 0 0 0 0 0 0 0.25 0"/>
<feBlend mode="normal" in2="BackgroundImageFix" result="effect1_dropShadow_52_16"/>
<feBlend mode="normal" in="SourceGraphic" in2="effect1_dropShadow_52_16" result="shape"/>
</filter>
<clipPath id="clip0_52_16">
<rect width="47.6515" height="34.714" fill="white" transform="translate(28.2549 26) rotate(8.70671)"/>
</clipPath>
</defs>
</svg>
