<svg width="98" height="108" viewBox="0 0 98 108" fill="none" xmlns="http://www.w3.org/2000/svg">
<g filter="url(#filter0_d_52_12)">
<path d="M47 1.73205C48.8564 0.660253 51.1436 0.660254 53 1.73205L90.3013 23.268C92.1577 24.3397 93.3013 26.3205 93.3013 28.4641V71.5359C93.3013 73.6795 92.1577 75.6603 90.3013 76.7321L53 98.268C51.1436 99.3397 48.8564 99.3397 47 98.2679L9.69873 76.732C7.84232 75.6603 6.69873 73.6795 6.69873 71.5359V28.4641C6.69873 26.3205 7.84232 24.3397 9.69873 23.2679L47 1.73205Z" fill="#ECD36C"/>
<path d="M52.25 3.03109L89.5513 24.567C90.9436 25.3708 91.8013 26.8564 91.8013 28.4641V71.5359C91.8013 73.1436 90.9436 74.6292 89.5513 75.433L52.25 96.9689C50.8577 97.7728 49.1423 97.7728 47.75 96.9689L10.4487 75.433C9.05642 74.6292 8.19873 73.1436 8.19873 71.5359V28.4641C8.19873 26.8564 9.05643 25.3708 10.4487 24.567L47.75 3.03109C49.1423 2.22724 50.8577 2.22724 52.25 3.03109Z" stroke="#E68282" stroke-width="3"/>
</g>
<path d="M41.8631 74.898C39.9871 74.898 38.6011 76.046 38.6011 77.712C38.6011 79.364 39.9871 80.512 41.8631 80.512C43.7531 80.512 45.1391 79.364 45.1391 77.712C45.1391 76.046 43.7531 74.898 41.8631 74.898ZM41.8631 75.85C43.0951 75.85 44.0051 76.62 44.0051 77.712C44.0051 78.804 43.0951 79.56 41.8631 79.56C40.6451 79.56 39.7211 78.804 39.7211 77.712C39.7211 76.62 40.6451 75.85 41.8631 75.85ZM47.5191 74.436V80.918H48.6951V74.436H47.5191ZM40.5051 81.534V82.472H47.5471V83.746H40.5331V86.518H41.6671V84.614H48.6951V81.534H40.5051ZM40.5331 86V86.924H49.1151V86H40.5331ZM54.49 75.038V76.27C54.49 78.16 53.216 79.91 51.298 80.61L51.886 81.534C54.028 80.722 55.456 78.664 55.456 76.27V75.038H54.49ZM54.7 75.038V76.27C54.7 78.594 56.128 80.526 58.242 81.296L58.83 80.386C56.954 79.728 55.652 78.09 55.652 76.27V75.038H54.7ZM53.118 82.696V83.648H60.398V87.092H61.574V82.696H53.118ZM60.398 74.436V82.052H61.574V74.436H60.398Z" fill="#24221B"/>
<g clip-path="url(#clip0_52_12)">
<path d="M35.7714 57.1106C34.1354 57.1106 33.2811 56.2886 32.8474 55.5944C31.9379 54.1428 32.2677 52.3983 32.4449 51.7117C32.5364 51.3612 32.6403 50.911 32.7559 50.3818C33.4823 47.1142 34.8378 41.0218 38.7629 38.1549C41.4058 36.2242 46.6253 35.5376 50.6302 35.5376C53.0595 35.5376 59.0483 35.8166 62.1923 38.4189C66.8075 42.2301 67.9729 52.2767 68.0221 52.7056C68.0286 52.7771 68.0345 52.8486 68.0345 52.927C68.0345 55.5512 66.6977 57.1175 64.4573 57.1175H35.7714V57.1106Z" fill="white"/>
<path d="M35.7656 58.6049C33.4856 58.6049 32.3046 57.2724 31.803 56.478C30.9176 55.0677 30.7018 53.1659 31.2109 51.2609C31.2816 51.007 31.3667 50.6282 31.4663 50.1849L31.5059 50.0081C32.2827 46.5317 33.7291 40.0612 38.0782 36.8839C40.9588 34.7846 46.4508 34.0371 50.6307 34.0371C53.801 34.0371 59.6142 34.4459 62.9311 37.1849C67.9022 41.2927 69.1656 51.3663 69.2936 52.5012C69.3107 52.6385 69.3161 52.779 69.3161 52.9126C69.3161 56.3701 67.4092 58.6043 64.4579 58.6043H35.7656V58.6049ZM50.6302 37.0463C45.8149 37.0463 41.4203 37.9863 39.4353 39.4417C35.9369 41.9988 34.6676 47.7099 33.9856 50.7787C33.863 51.3324 33.7575 51.8065 33.6601 52.1714C33.4037 53.1458 33.4834 54.0983 33.8748 54.7178C34.2506 55.3142 34.8871 55.6164 35.7656 55.6164H64.4568C65.9798 55.6164 66.7523 54.7116 66.7523 52.9276C66.7432 52.8524 65.6736 43.1362 61.4541 39.6473C59.4552 37.995 55.5103 37.0463 50.6302 37.0463Z" fill="#4C2F1B"/>
<path d="M35.7656 58.4187C33.5557 58.4187 32.4144 57.1333 31.931 56.3676C31.0766 55.0063 30.8688 53.1653 31.3624 51.3168C31.4331 51.0628 31.5193 50.6803 31.6199 50.2326L31.6595 50.0558C32.4347 46.5869 33.8673 40.1797 38.1622 37.042C41.014 34.9639 46.4728 34.224 50.6302 34.224C53.7812 34.224 59.558 34.6284 62.839 37.3379C67.755 41.4006 69.0082 51.3995 69.1351 52.527C69.1517 52.658 69.156 52.7897 69.156 52.9145C69.156 56.2585 67.3112 58.4194 64.4568 58.4194H35.7656V58.4187ZM50.6302 36.8601C45.7865 36.8601 41.3598 37.8114 39.3512 39.2837C35.7993 41.8803 34.5193 47.6385 33.8319 50.7323C33.7099 51.2816 33.6055 51.7532 33.5086 52.1156C33.2372 53.1477 33.326 54.1611 33.7468 54.8289C34.1547 55.4754 34.8335 55.8033 35.7656 55.8033H64.4568C66.0628 55.8033 66.9113 54.8088 66.9113 52.9277C66.8637 52.4768 65.7614 42.9814 61.5457 39.495C59.521 37.8208 55.5424 36.8601 50.6302 36.8601Z" fill="#4C2F1B"/>
<path d="M45.9359 56.16V41.9448L54.3294 42.052V56.1594H45.9359V56.16Z" fill="#4C2F1B"/>
<path d="M46.8026 42.9675L53.4686 43.0459V55.1442H46.8026V42.9675ZM45.075 40.9227V57.1752H55.1966V41.0513L53.4873 41.03L46.8213 40.944L45.075 40.9227Z" fill="#4C2F1B"/>
<path d="M28.7725 43.335C31.9031 32.0625 40.2688 29.2509 50.1586 29.2509C59.5055 29.2509 66.9033 32.0632 70.5762 43.3426C74.0168 53.9065 58.5178 42.7569 50.1586 42.7569C41.7988 42.7569 25.7901 54.0676 28.7725 43.335Z" fill="#FF6C4A"/>
<path d="M47.4985 29.7111C47.4985 29.7111 46.5766 36.2964 48.2249 42.3957C48.2249 42.3957 49.3358 41.8665 51.741 42.36C51.741 42.36 49.7935 35.2455 51.1918 29.5964C51.1853 29.5895 49.2812 29.4108 47.4985 29.7111Z" fill="#FFAF9F"/>
<path d="M60.5157 31.2637C58.9937 39.2561 60.5157 45.2262 60.5157 45.2262L63.8984 46.417C63.8984 46.417 63.1886 38.829 63.566 33.1962C63.566 33.1881 61.392 31.5929 60.5157 31.2637Z" fill="#FFAF9F"/>
<path d="M61.1421 46.1918C60.9012 44.9923 59.8696 39.0992 61.1105 31.527C61.9145 31.9828 63.1924 32.9642 63.6453 33.3222C63.3487 38.5167 63.7946 45.1791 63.952 47.2653L61.1421 46.1918Z" fill="#FFAF9F"/>
<path d="M48.3989 42.8246C47.0536 37.0657 47.5724 30.9464 47.7201 29.5292C48.3491 29.4308 49.0504 29.3806 49.8085 29.3806C50.218 29.3806 50.5686 29.3963 50.8144 29.4113C49.7635 34.6967 50.908 40.808 51.3406 42.7832C50.8112 42.691 50.3063 42.6446 49.8358 42.6446C49.1666 42.6452 48.6896 42.7405 48.3989 42.8246Z" fill="#FFAF9F"/>
<path d="M31.9261 50.3109C29.5332 50.3109 28.2918 49.1158 27.6713 48.1138C26.2179 45.7466 27.0535 42.7958 27.3276 41.8257C31.2018 28.1472 42.1998 26.5652 50.1356 26.5652C57.9712 26.5652 67.5366 28.282 71.982 41.6689C72.3107 42.6565 73.3091 45.657 71.9017 48.0605C71.3246 49.0537 70.1528 50.2382 67.8514 50.2382C65.6362 50.2382 62.6731 49.1515 59.5355 48.0021C56.2967 46.8183 52.6254 45.4764 50.1361 45.4764C47.6725 45.4764 43.991 46.8051 40.7431 47.9777C37.4299 49.1785 34.3073 50.3109 31.9261 50.3109ZM50.1356 29.5675C38.6275 29.5675 32.3437 33.6383 29.7602 42.7663C29.2918 44.4273 29.2896 45.6012 29.7538 46.353C30.1472 46.9913 30.8576 47.3011 31.9256 47.3011C33.8962 47.3011 36.8528 46.2351 39.9829 45.1071C43.5831 43.8097 47.3047 42.4678 50.135 42.4678C53.0119 42.4678 56.8824 43.8843 60.2967 45.1334C63.2539 46.2157 66.0457 47.2371 67.8503 47.2371C68.8118 47.2371 69.4445 46.9537 69.7861 46.3699C70.2154 45.6357 70.1517 44.4556 69.5923 42.7644C65.7341 31.1358 57.5917 29.5675 50.1356 29.5675Z" fill="#4C2F1B"/>
<path d="M31.9261 50.1241C29.6001 50.1241 28.3988 48.971 27.8003 48.0041C26.3951 45.7153 27.2104 42.8322 27.4786 41.8847C31.3207 28.3203 42.2495 26.7515 50.1356 26.7515C57.9209 26.7515 67.4231 28.4552 71.8338 41.7367C72.1544 42.7005 73.1309 45.6313 71.7706 47.9552C71.2144 48.9127 70.0837 50.0526 67.8514 50.0526C65.6608 50.0526 62.7084 48.9704 59.5832 47.8247C56.3326 46.6365 52.6484 45.2908 50.1361 45.2908C47.6468 45.2908 43.9508 46.6258 40.6901 47.8028C37.3946 48.9967 34.2827 50.1241 31.9261 50.1241ZM50.1356 29.3813C38.5482 29.3813 32.2174 33.4916 29.6092 42.7074C29.1237 44.4299 29.129 45.6577 29.6253 46.4622C30.0509 47.1525 30.8036 47.4874 31.9261 47.4874C33.9203 47.4874 36.8882 46.4176 40.0306 45.2852C43.6189 43.9916 47.3299 42.6541 50.1361 42.6541C52.9878 42.6541 56.846 44.0656 60.2502 45.3109C63.2186 46.3969 66.0222 47.4228 67.8514 47.4228C68.8696 47.4228 69.5452 47.1124 69.9183 46.4747C70.3792 45.6859 70.3214 44.45 69.7417 42.6967C65.8476 30.9634 57.6458 29.3813 50.1356 29.3813Z" fill="#4C2F1B"/>
<path d="M35.711 33.39C35.711 33.39 34.1135 40.5791 38.3946 45.7196L41.1286 44.7803C41.1286 44.7803 37.757 39.6993 38.4321 31.5634L35.711 33.39Z" fill="#FFAF9F"/>
<path d="M38.6028 45.9197C34.8881 40.8832 35.8362 34.0691 36.0327 32.9059L38.1489 31.3646C37.7757 38.6334 39.9642 43.5676 40.7672 45.1133L38.6028 45.9197Z" fill="#FFAF9F"/>
</g>
<defs>
<filter id="filter0_d_52_12" x="2.69873" y="0.928223" width="94.6025" height="106.144" filterUnits="userSpaceOnUse" color-interpolation-filters="sRGB">
<feFlood flood-opacity="0" result="BackgroundImageFix"/>
<feColorMatrix in="SourceAlpha" type="matrix" values="0 0 0 0 0 0 0 0 0 0 0 0 0 0 0 0 0 0 127 0" result="hardAlpha"/>
<feOffset dy="4"/>
<feGaussianBlur stdDeviation="2"/>
<feComposite in2="hardAlpha" operator="out"/>
<feColorMatrix type="matrix" values="0 0 0 0 0 0 0 0 0 0 0 0 0 0 0 0 0 0 0.25 0"/>
<feBlend mode="normal" in2="BackgroundImageFix" result="effect1_dropShadow_52_12"/>
<feBlend mode="normal" in="SourceGraphic" in2="effect1_dropShadow_52_12" result="shape"/>
</filter>
<clipPath id="clip0_52_12">
<rect width="45.7931" height="32.0398" fill="white" transform="translate(26.8394 26.5652)"/>
</clipPath>
</defs>
</svg>
