<svg width="202" height="131" viewBox="0 0 202 131" fill="none" xmlns="http://www.w3.org/2000/svg">
<path d="M30.2281 50H171.714L200 130H2L30.2281 50Z" fill="#2298FF" stroke="black" stroke-width="1.5"/>
<path d="M136.471 35.8489C136.471 52.8204 127.546 70.954 118.535 84.9161C114.04 91.882 109.543 97.779 106.17 101.934C104.484 104.012 103.08 105.653 102.098 106.773C101.697 107.23 101.367 107.601 101.117 107.879C100.866 107.593 100.533 107.211 100.128 106.74C99.1459 105.594 97.7411 103.919 96.0546 101.803C92.681 97.5715 88.1834 91.5828 83.687 84.5552C74.6728 70.4668 65.75 52.3345 65.75 35.8489C65.75 16.4694 81.5763 0.75 101.11 0.75C120.645 0.75 136.471 16.4694 136.471 35.8489Z" fill="#FF7575" stroke="black" stroke-width="1.5"/>
<path d="M120.422 37.7822C120.422 48.6439 111.764 57.4279 101.11 57.4279C90.4567 57.4279 81.7991 48.6439 81.7991 37.7822C81.7991 26.9204 90.4567 18.1365 101.11 18.1365C111.764 18.1365 120.422 26.9204 120.422 37.7822Z" fill="white" stroke="black" stroke-width="1.5"/>
</svg>
