<svg width="100" height="108" viewBox="0 0 100 108" fill="none" xmlns="http://www.w3.org/2000/svg">
<g filter="url(#filter0_d_52_9)">
<path d="M47 1.73205C48.8564 0.660253 51.1436 0.660254 53 1.73205L90.3013 23.268C92.1577 24.3397 93.3013 26.3205 93.3013 28.4641V71.5359C93.3013 73.6795 92.1577 75.6603 90.3013 76.7321L53 98.268C51.1436 99.3397 48.8564 99.3397 47 98.2679L9.69873 76.732C7.84232 75.6603 6.69873 73.6795 6.69873 71.5359V28.4641C6.69873 26.3205 7.84232 24.3397 9.69873 23.2679L47 1.73205Z" fill="#ECD36C"/>
<path d="M52.25 3.03109L89.5513 24.567C90.9436 25.3708 91.8013 26.8564 91.8013 28.4641V71.5359C91.8013 73.1436 90.9436 74.6292 89.5513 75.433L52.25 96.9689C50.8577 97.7728 49.1423 97.7728 47.75 96.9689L10.4487 75.433C9.05642 74.6292 8.19873 73.1436 8.19873 71.5359V28.4641C8.19873 26.8564 9.05643 25.3708 10.4487 24.567L47.75 3.03109C49.1423 2.22724 50.8577 2.22724 52.25 3.03109Z" stroke="#E68282" stroke-width="3"/>
</g>
<path d="M47.0331 71.436V84.092H48.1951V71.436H47.0331ZM38.1291 72.794V73.746H45.2971V72.794H38.1291ZM37.9331 80.97C40.2431 80.956 43.2811 80.914 46.0111 80.48L45.9411 79.626C43.2531 79.948 40.1451 79.976 37.7931 79.976L37.9331 80.97ZM39.5291 73.508V80.242H40.6491V73.508H39.5291ZM42.7631 73.508V80.242H43.8971V73.508H42.7631ZM53.822 73.242V75.3C53.822 77.442 52.296 79.85 50.49 80.732L51.162 81.656C53.136 80.648 54.746 77.932 54.746 75.3V73.242H53.822ZM54.032 73.242V75.3C54.032 77.806 55.558 80.354 57.56 81.348L58.218 80.424C56.384 79.556 54.956 77.302 54.956 75.3V73.242H54.032ZM50.938 72.724V73.704H57.756V72.724H50.938ZM59.254 71.436V84.092H60.43V71.436H59.254ZM60.15 76.546V77.526H62.502V76.546H60.15Z" fill="#24221B"/>
<g clip-path="url(#clip0_52_9)">
<path d="M27.5369 57.1965L29.4497 61.4349L67.2896 44.1598C68.3533 43.6741 67.2184 38.9905 67.2184 38.9905L27.5369 57.1965Z" fill="#F2C05A"/>
<path d="M29.9172 62.4718C29.2614 62.7712 28.5414 62.5505 28.2791 61.9693L26.3661 57.7305C26.1082 57.159 26.4233 56.4545 27.0685 56.1599L66.7783 37.9409C67.1086 37.7901 67.513 37.7729 67.8084 37.8972C68.146 38.0354 68.3667 38.29 68.4331 38.6151C69.8107 44.2591 68.3395 44.9308 67.7858 45.1835L29.9172 62.4718ZM66.5056 43.2974L66.5212 43.1218C66.5567 42.7267 66.5098 42.0758 66.3692 41.011L66.3216 40.6492L29.2028 57.6863L30.1911 59.8762L30.4759 59.7462L66.5056 43.2974Z" fill="#4C2F1B"/>
<path d="M47.6 22.7455C46.6205 22.7441 45.6577 23.3035 45.2323 24.1556L27.5647 57.1838L32.603 54.8836L37.984 66.8065C38.6217 68.2195 40.4233 68.7718 42.0186 68.0434C43.614 67.3151 44.3867 65.5875 43.749 64.1746L38.368 52.2517L41.3627 50.8845L43.9021 56.5112C44.5509 57.9488 46.4312 58.5256 48.0549 57.7843C49.6781 57.0433 50.4849 55.2402 49.8359 53.8022L47.2965 48.1755L51.5788 46.2205C52.6364 47.4418 54.5338 47.831 56.2409 47.0517C57.9484 46.2721 58.9335 44.5669 58.688 42.9749L67.2971 39.0149C63.8248 24.068 52.0047 22.7079 47.6 22.7455Z" fill="#FFDE8A"/>
<path d="M42.7719 35.8315C44.4229 35.0778 45.213 33.312 44.5529 31.8494C44.0942 30.833 43.07 30.2842 41.9451 30.2601L39.2179 35.3613C40.0966 36.186 41.4843 36.4193 42.7719 35.8315Z" fill="#FF5C5C"/>
<path d="M43.0068 36.352C41.5231 37.0293 39.7995 36.7998 38.7364 35.7905C38.563 35.6305 38.518 35.3823 38.647 35.1442L41.374 30.0426C41.4747 29.8174 41.7433 29.6645 41.9838 29.6746C43.4054 29.6835 44.5863 30.4296 45.1009 31.57C45.9237 33.3162 44.966 35.4575 43.0068 36.352ZM39.9846 35.191C40.7067 35.6688 41.6806 35.7321 42.5483 35.336C43.8637 34.7355 44.5024 33.3082 43.9765 32.1427C43.6745 31.4736 43.0309 31.0199 42.2637 30.8919L39.9846 35.191Z" fill="#4C2F1B"/>
<path d="M53.6138 33.6022C53.8484 35.02 55.3539 35.8872 56.904 35.5083C58.0012 35.2465 58.8351 34.4771 59.1602 33.5514L55.0531 30.7332C54.0175 31.3555 53.4068 32.4709 53.6138 33.6022Z" fill="#FF5C5C"/>
<path d="M57.7491 35.8102C57.5252 35.9124 57.2624 36.0026 57.0161 36.0552C55.1242 36.5005 53.3112 35.4747 52.9982 33.7343C52.7801 32.4288 53.4689 31.0381 54.7734 30.2633C54.9861 30.1365 55.2829 30.1203 55.4841 30.2676L59.5802 33.0612C59.7818 33.2083 59.8541 33.4441 59.7536 33.6697C59.4005 34.6077 58.6728 35.3884 57.7491 35.8102ZM54.2181 33.4462C54.3297 33.9933 54.6377 34.4502 55.1239 34.7065C55.6223 34.9869 56.2043 35.0801 56.8086 34.9241C57.4806 34.7668 58.0568 34.3245 58.4039 33.7472L55.03 31.4314C54.4033 31.9863 54.0948 32.7247 54.2181 33.4462Z" fill="#4C2F1B"/>
<path d="M42.447 69.0682C40.2121 70.0885 37.6666 69.3084 36.7731 67.3287L31.8601 56.4426L27.9929 58.2081C27.4943 58.4357 26.9544 58.3652 26.6172 58.0281C26.2482 57.7024 26.1795 57.189 26.4341 56.7384L44.1052 23.7041C44.5178 22.9453 45.1936 22.3213 46.0081 21.9495C46.5445 21.7046 47.1108 21.5772 47.692 21.5709C51.6328 21.5379 64.7792 22.6687 68.4627 38.6088C68.5953 39.1397 68.268 39.7315 67.7024 39.9897L59.899 43.583L59.8812 43.7549C59.6927 45.565 58.4531 47.2021 56.6464 48.027C54.8401 48.8516 52.799 48.7128 51.3195 47.6636L51.1777 47.5635L48.8724 48.616L50.9441 53.2063C51.8498 55.2132 50.7433 57.6871 48.4773 58.7216C46.2113 59.7561 43.6318 58.965 42.7263 56.9585L40.6546 52.3682L39.9724 52.6796L44.8855 63.5657C45.7648 65.5832 44.6713 68.0527 42.447 69.0682ZM46.9158 24.0375C46.6521 24.1578 46.4453 24.3516 46.3173 24.5984L30.1941 54.7331L32.1064 53.86C32.4309 53.7119 32.7599 53.6851 33.0322 53.785C33.3552 53.8844 33.5865 54.087 33.7166 54.3753L39.0976 66.2982C39.4812 67.1482 40.5743 67.4833 41.5335 67.0454C42.5095 66.5998 42.968 65.5737 42.5779 64.7093L37.1968 52.786C36.9388 52.2145 37.254 51.51 37.8992 51.2154L40.8939 49.8483C41.2179 49.7003 41.547 49.6735 41.8198 49.7732C42.1427 49.8726 42.3741 50.0752 42.5042 50.3635L45.0436 55.9902C45.4394 56.8673 46.5674 57.2131 47.5578 56.761C48.5482 56.3088 49.0319 55.2273 48.636 54.3501L46.0853 48.6984C45.8272 48.1265 46.1423 47.4219 46.7876 47.1274L51.0699 45.1724C51.6049 44.9281 52.1977 45.0349 52.5448 45.4376C53.2763 46.2936 54.5874 46.5266 55.7322 46.0039C56.8769 45.4813 57.5658 44.3353 57.4065 43.2176C57.3339 42.6905 57.6443 42.1714 58.1788 41.9274L65.8043 38.4154L65.7406 38.1833C62.192 25.2257 51.7817 23.8841 47.4705 23.9086C47.2653 23.9178 47.0831 23.9611 46.9158 24.0375Z" fill="#4C2F1B"/>
<path d="M67.2462 38.9777C63.7471 23.7446 51.5123 22.6634 47.3314 22.7488C46.4972 22.7707 45.7022 23.2534 45.3159 23.968L43.9273 26.5753C49.9605 27.5275 60.3312 29.6394 62.6393 41.1116L67.2462 38.9777Z" fill="#FFB07B"/>
<path d="M63.0962 42.1227C62.7564 42.2779 62.3552 42.2895 62.0243 42.1533C61.6946 42.0186 61.458 41.7416 61.3905 41.4114C59.3907 31.5051 51.2594 28.931 43.5696 27.7197C43.2121 27.6755 42.9109 27.4618 42.7322 27.1312C42.5715 26.8328 42.585 26.4718 42.7699 26.1411L44.1612 23.5284C44.5338 22.8335 45.1451 22.2651 45.8824 21.9285C46.3512 21.7145 46.8637 21.6008 47.3653 21.5992C51.3682 21.5167 64.6982 22.5034 68.4181 38.6588C68.5509 39.1901 68.2237 39.7819 67.6585 40.0399L63.0962 42.1227V42.1227ZM46.8351 23.9959C46.6419 24.0841 46.48 24.2327 46.3781 24.4155L45.722 25.6802L46.0746 25.744C49.6018 26.3856 60.3359 28.3383 63.4285 39.1272L63.5156 39.4305L65.7673 38.4025L65.7032 38.1696C62.086 24.9653 51.5547 23.8003 47.195 23.912C47.0783 23.9135 46.9525 23.9423 46.8351 23.9959Z" fill="#4C2F1B"/>
<path d="M62.6283 41.086C62.6283 41.086 63.6066 43.9277 63.2033 46.0253L67.3174 44.1471C67.3174 44.1471 68.4595 42.7885 67.2462 38.9778L62.6283 41.086Z" fill="#E2803D"/>
<path d="M63.6713 47.0621C63.2403 47.2588 62.7738 47.2306 62.4222 46.9871C62.0635 46.752 61.8932 46.3531 61.9718 45.9418C62.2531 44.4115 61.6534 42.1963 61.421 41.5404C61.2287 40.9979 61.5466 40.3597 62.1439 40.087L66.7618 37.9788C67.1045 37.8223 67.4654 37.802 67.7535 37.9229C68.105 38.0496 68.3292 38.276 68.4153 38.5834C69.7384 42.7833 68.5032 44.5249 68.242 44.8315C68.1429 44.9704 67.9713 45.0989 67.7853 45.1839L63.6713 47.0621V47.0621ZM64.1955 41.8657C64.3062 42.4071 64.4439 43.081 64.5102 43.8147L64.5444 44.1928L66.4217 43.3358L66.4584 43.189C66.5409 42.8569 66.6504 42.1259 66.4524 40.9634L66.3934 40.6175L64.1499 41.6418L64.1955 41.8657Z" fill="#4C2F1B"/>
<path d="M38.0677 46.0508C38.494 46.9955 39.7038 47.3664 40.7704 46.8794C41.837 46.3925 42.3559 45.2324 41.9296 44.2877C41.5032 43.3431 40.2934 42.9722 39.2268 43.4592C38.1602 43.9461 37.6413 45.1062 38.0677 46.0508Z" fill="#FF5C5C"/>
<path d="M41.0055 47.4004C39.634 48.0265 38.039 47.5591 37.4797 46.3198C36.9203 45.0805 37.5921 43.5777 38.9919 42.9387C40.3912 42.2998 41.958 42.7802 42.5175 44.0199C43.0766 45.2587 42.4048 46.7615 41.0055 47.4004ZM39.4617 43.9797C38.7062 44.3246 38.3647 45.1385 38.6554 45.7825C38.9462 46.427 39.8078 46.6911 40.5355 46.3589C41.2632 46.0267 41.6325 45.2001 41.3418 44.5561C41.051 43.9116 40.2172 43.6348 39.4617 43.9797Z" fill="#4C2F1B"/>
<path d="M50.2868 42.5354L46.2284 44.3882C46.0045 44.4904 45.73 44.4063 45.6406 44.208L45.2713 43.3899C45.1819 43.1916 45.2996 42.9284 45.5234 42.8262L49.5819 40.9734C49.8057 40.8712 50.0802 40.9554 50.1696 41.1536L50.5389 41.9717C50.6562 42.1573 50.5385 42.4205 50.2868 42.5354Z" fill="#3DE25C"/>
<path d="M50.074 43.2604L46.9393 44.6914C46.1277 45.062 45.2266 44.7857 44.9022 44.0669C44.5778 43.3481 44.9642 42.484 45.7758 42.1135L48.9105 40.6824C49.7221 40.3119 50.6232 40.5882 50.9476 41.307C51.272 42.0257 50.8855 42.8898 50.074 43.2604ZM46.2344 43.1295C46.0666 43.2061 45.9825 43.394 46.0496 43.5426C46.1169 43.6916 46.3128 43.7516 46.4806 43.675L49.6152 42.244C49.783 42.1674 49.8671 41.9795 49.7998 41.8305C49.7327 41.6819 49.5368 41.6218 49.369 41.6984L46.2344 43.1295Z" fill="#4C2F1B"/>
<path d="M51.396 37.5145L48.301 36.4164C48.1836 36.3804 48.1277 36.2564 48.178 36.1438L48.7995 34.9036C48.8498 34.791 48.9898 34.7271 49.1077 34.7629L52.2027 35.861C52.3201 35.897 52.376 36.0209 52.3257 36.1335L51.7042 37.3737C51.6814 37.4743 51.5136 37.5509 51.396 37.5145Z" fill="#3DE25C"/>
<path d="M51.8159 37.9208L51.7603 37.9462C51.4803 38.074 51.1722 38.0652 50.8982 37.9808L48.257 37.0643C47.9825 36.9801 47.7869 36.7709 47.675 36.523C47.5633 36.2754 47.6025 35.9882 47.7202 35.7251L48.1119 34.9482C48.2296 34.685 48.4761 34.4829 48.756 34.3551C49.036 34.2273 49.3436 34.2364 49.618 34.3205L52.2593 35.237C52.5337 35.3212 52.7295 35.5308 52.8414 35.7788C52.9533 36.0267 52.9139 36.3135 52.7962 36.5767L52.4045 37.3536C52.2748 37.5915 52.0675 37.8059 51.8159 37.9208ZM48.9172 35.9856L51.3236 36.8301L51.6035 36.2538L49.1971 35.4092L48.9172 35.9856Z" fill="#4C2F1B"/>
</g>
<defs>
<filter id="filter0_d_52_9" x="2.69873" y="0.928223" width="94.6025" height="106.144" filterUnits="userSpaceOnUse" color-interpolation-filters="sRGB">
<feFlood flood-opacity="0" result="BackgroundImageFix"/>
<feColorMatrix in="SourceAlpha" type="matrix" values="0 0 0 0 0 0 0 0 0 0 0 0 0 0 0 0 0 0 127 0" result="hardAlpha"/>
<feOffset dy="4"/>
<feGaussianBlur stdDeviation="2"/>
<feComposite in2="hardAlpha" operator="out"/>
<feColorMatrix type="matrix" values="0 0 0 0 0 0 0 0 0 0 0 0 0 0 0 0 0 0 0.25 0"/>
<feBlend mode="normal" in2="BackgroundImageFix" result="effect1_dropShadow_52_9"/>
<feBlend mode="normal" in="SourceGraphic" in2="effect1_dropShadow_52_9" result="shape"/>
</filter>
<clipPath id="clip0_52_9">
<rect width="46.7916" height="41.4558" fill="white" transform="matrix(0.909684 -0.415301 0.41136 0.911473 16.3027 35.4326)"/>
</clipPath>
</defs>
</svg>
