<svg width="100" height="102" viewBox="0 0 100 102" fill="none" xmlns="http://www.w3.org/2000/svg">
<g filter="url(#filter0_d_52_15)">
<path d="M47.138 1.55321C48.9231 0.584471 51.0769 0.58447 52.8619 1.55321L90.1632 21.797C92.097 22.8464 93.3013 24.8702 93.3013 27.0704V66.9296C93.3013 69.1298 92.097 71.1536 90.1632 72.203L52.862 92.4468C51.0769 93.4155 48.9231 93.4155 47.1381 92.4468L9.83678 72.203C7.90299 71.1536 6.69873 69.1298 6.69873 66.9296V27.0704C6.69873 24.8702 7.90299 22.8464 9.83678 21.797L47.138 1.55321Z" fill="#ECD36C"/>
<path d="M52.1465 2.87157L89.4477 23.1153C90.8981 23.9024 91.8013 25.4202 91.8013 27.0704V66.9296C91.8013 68.5798 90.8981 70.0976 89.4477 70.8847L52.1465 91.1284C50.8077 91.855 49.1923 91.855 47.8535 91.1284L10.5523 70.8847C9.10192 70.0976 8.19873 68.5798 8.19873 66.9296V27.0704C8.19873 25.4202 9.10192 23.9024 10.5523 23.1153L47.8535 2.87157C49.1923 2.14502 50.8077 2.14502 52.1465 2.87157Z" stroke="#E68282" stroke-width="3"/>
</g>
<path d="M27.5882 62.332V64.138C27.5882 65.664 26.6082 67.428 24.9422 68.226L25.6142 69.122C27.4482 68.226 28.5122 66.126 28.5122 64.138V62.332H27.5882ZM27.7702 62.332V64.138C27.7702 66.098 28.7782 67.932 30.6122 68.73L31.2562 67.848C29.6322 67.148 28.6942 65.622 28.6942 64.138V62.332H27.7702ZM34.4902 61.45V70.984H35.5962V61.45H34.4902ZM32.4742 65.23V66.182H34.8542V65.23H32.4742ZM31.7742 61.674V70.55H32.8802V61.674H31.7742ZM27.3502 72.86V73.812H35.9882V72.86H27.3502ZM27.3502 69.794V73.406H28.5122V69.794H27.3502ZM39.2631 67.498V68.45H47.9571V67.498H39.2631ZM37.8211 71.418V72.384H49.2871V71.418H37.8211ZM39.2631 62.598V67.918H40.4251V63.564H47.8311V62.598H39.2631ZM54.83 62.024C52.954 62.024 51.61 63.074 51.61 64.628C51.61 66.168 52.954 67.246 54.83 67.246C56.72 67.246 58.064 66.168 58.064 64.628C58.064 63.074 56.72 62.024 54.83 62.024ZM54.83 62.99C56.062 62.99 56.944 63.662 56.944 64.628C56.944 65.608 56.062 66.266 54.83 66.266C53.598 66.266 52.716 65.608 52.716 64.628C52.716 63.662 53.598 62.99 54.83 62.99ZM54.312 68.646V73.7H55.474V68.646H54.312ZM59.912 61.436V74.106H61.06V61.436H59.912ZM50.826 69.276C53.136 69.276 56.244 69.234 59.1 68.716L59.016 67.848C56.23 68.268 53.024 68.296 50.672 68.296L50.826 69.276ZM72.7769 61.436V74.092H73.9389V61.436H72.7769ZM67.0789 64.446V65.524C67.0789 67.736 65.6789 69.892 63.8029 70.76L64.4609 71.656C66.4909 70.676 68.0169 68.226 68.0169 65.524V64.446H67.0789ZM67.3029 64.446V65.524C67.3029 68.142 68.8569 70.508 70.9009 71.432L71.5589 70.522C69.6689 69.696 68.2269 67.638 68.2269 65.524V64.446H67.3029ZM64.1529 63.634V64.572H71.1249V63.634H64.1529ZM67.0789 61.66V64.152H68.2409V61.66H67.0789Z" fill="#24221B"/>
<g clip-path="url(#clip0_52_15)">
<path d="M37.9329 23.0045L33.8118 48.8879C33.6286 50.0386 34.423 51.1141 35.5945 51.3006L61.8064 55.474C63.6904 55.7739 65.0111 53.6934 63.8903 52.1498L41.7958 22.1158C40.6755 20.5723 38.2311 21.1316 37.9329 23.0045Z" fill="#FCDB9A"/>
<path d="M34.3198 24.8358L39.1775 21.398C39.7583 21.0048 41.008 21.7356 41.4116 22.3089L63.4311 52.5162C63.7414 52.9355 64.1651 54.4149 63.2189 55.3284L59.3121 57.9691C58.8354 58.4484 58.3954 58.4017 57.9882 57.8507L34.7065 27.1415C34.2378 26.535 33.6823 25.2895 34.3198 24.8358Z" fill="#F7C18B"/>
<path d="M58.3931 59.6041C57.9567 59.5347 57.4038 59.3081 56.9002 58.626L33.6365 27.9431C33.4395 27.7036 32.5162 26.3995 32.7246 25.0909C32.8108 24.5494 33.1001 24.0631 33.5485 23.7645L38.3836 20.3232C39.8109 19.3471 41.8268 20.5938 42.5012 21.5339L64.5207 51.7407C65.1248 52.5311 65.6866 54.7723 64.1766 56.2671L63.9871 56.4221L60.1602 59.006C59.5542 59.5576 58.9511 59.6463 58.5301 59.626L58.3931 59.6041ZM35.433 25.684C35.4964 25.8793 35.6212 26.1306 35.7955 26.3664L58.803 56.731L62.3374 54.3553C62.6056 54.0047 62.4198 53.3966 62.3419 53.2918L40.3225 23.0846C40.2256 22.9535 39.9257 22.7672 39.7067 22.6628L35.433 25.684Z" fill="#4C2F1B"/>
<path d="M52.4397 53.0565C51.4516 52.8991 50.9818 52.1534 50.5926 51.4896C50.5152 51.3849 50.4642 51.261 50.3637 51.1522L37.0201 32.8781L37.0005 32.8517C36.3014 31.7685 36.1352 30.4464 36.5626 29.2417C36.9901 28.0369 37.9203 27.0746 39.1661 26.6482C40.6401 26.1197 42.6251 25.4867 43.255 25.3789C43.667 25.306 44.0368 25.2024 44.384 25.0958C45.0968 24.9084 45.7638 24.7136 46.5448 24.838C48.4973 25.1488 49.8166 27.0712 53.0736 33.0966C55.5829 37.7535 59.036 41.6583 61.569 44.5372C62.4855 45.5854 63.286 46.4767 63.8515 47.2143C64.2196 47.7124 64.3596 48.3132 64.2364 48.9411C63.9075 50.4158 62.1114 51.6341 61.4461 51.9676L61.2144 52.0926L53.9855 52.8159C53.5358 52.9767 53.0141 53.1479 52.4397 53.0565Z" fill="#FF9988"/>
<path d="M52.2747 54.0929C50.8203 53.8613 50.139 52.7727 49.6874 52.0522L49.6535 51.9996C49.5957 51.9214 49.53 51.8331 49.4845 51.7475L36.1199 33.4395L36.1118 33.4102C35.2096 32.0238 35.0061 30.3824 35.5354 28.8727C36.0672 27.367 37.2498 26.1932 38.7797 25.6517C40.0789 25.1721 42.2898 24.4703 43.0238 24.3324C43.2799 24.2767 43.5063 24.2183 43.7331 24.161L44.2015 24.0425C44.9255 23.8579 45.7459 23.6487 46.6866 23.7984C49.2156 24.2011 50.7743 26.6602 53.9851 32.6004C56.4215 37.1316 59.8215 40.9781 62.304 43.7862L62.346 43.8338C63.1301 44.7121 64.02 45.7219 64.6806 46.5555C65.2515 47.3028 65.45 48.2259 65.2376 49.152C64.717 51.4331 61.9559 52.8599 61.9286 52.8721L61.4953 53.0854L61.04 53.1385L54.2268 53.822L54.1872 53.8386C53.5525 54.109 52.9094 54.1939 52.2747 54.0929ZM46.3603 25.8479C45.7961 25.7581 45.2696 25.9067 44.6026 26.0947C44.2575 26.1923 43.8664 26.3029 43.4169 26.3921C42.9276 26.4699 41.0047 27.0879 39.5104 27.6148C38.5929 27.9362 37.8847 28.6386 37.5677 29.5413C37.2479 30.4519 37.3655 31.4482 37.8906 32.2743L51.2439 50.5639C51.3327 50.6994 51.4186 50.8371 51.4977 50.9638C51.8516 51.5313 52.1075 51.9415 52.6041 52.0205C52.8895 52.066 53.202 51.9907 53.642 51.7686L60.8472 51.0416L60.8942 51.018C61.6813 50.6202 62.94 49.6054 63.1435 48.6919C63.2163 48.3642 63.1535 48.062 62.961 47.8176C62.3934 47.0797 61.5886 46.166 60.6568 45.1075C58.1194 42.2264 54.6439 38.2801 52.0966 33.5601C48.9626 27.7239 47.7296 26.0659 46.3603 25.8479Z" fill="#4C2F1B"/>
<path d="M48.4722 50.4583C45.0721 49.9169 41.9063 47.6082 40.0072 44.2979C36.8705 38.8474 38.0696 32.351 42.6924 29.8015C44.3459 28.8849 46.2805 28.5682 48.2562 28.8827C51.6564 29.4241 54.8216 31.7327 56.7212 35.0436C59.8579 40.4941 58.6587 46.9905 54.0359 49.54C52.3825 50.4561 50.4479 50.7728 48.4722 50.4583Z" fill="#FF624D"/>
<path d="M48.3073 51.4941C44.5805 50.9007 41.1256 48.4012 39.0661 44.8075C35.648 38.8717 37.0288 31.7318 42.1432 28.8911C43.9951 27.8633 46.157 27.5091 48.3944 27.8653C52.0985 28.4551 55.5528 30.9555 57.636 34.553C59.2588 37.3726 59.8718 40.5295 59.3621 43.4417C58.8194 46.562 57.1131 49.0575 54.5585 50.4678C52.7067 51.4956 50.5447 51.8503 48.3073 51.4941ZM48.0681 29.9148C46.333 29.6386 44.6484 29.911 43.1971 30.7027C39.1098 32.9706 38.0931 38.8287 40.9298 43.7619C42.6935 46.8042 45.576 48.9116 48.6408 49.3996C50.3759 49.6758 52.0604 49.4034 53.5118 48.6117C57.5991 46.3433 58.6158 40.4857 55.7791 35.5525C54.0154 32.5097 51.1324 30.4027 48.0681 29.9148Z" fill="#4C2F1B"/>
<path d="M55.0001 40.9696C54.9485 41.2934 55.174 41.5992 55.5042 41.6517C55.8339 41.7042 56.1431 41.4842 56.1948 41.1598C56.2463 40.8359 56.0208 40.5307 55.6911 40.4782C55.3608 40.4256 55.0517 40.6457 55.0001 40.9696Z" fill="#FF7A6C"/>
<path d="M38.3207 24.709C38.3207 24.709 42.1942 22.5725 44.0412 25.6198C45.8876 28.6674 44.2365 29.4226 47.092 30.5715C49.948 31.7199 47.7557 34.5412 49.4516 35.5745C51.148 36.6079 54.9316 35.7761 54.4844 39.1757C54.0376 42.5753 54.5873 42.5237 55.7667 43.8453C56.9692 45.1705 60.6668 43.3993 60.4601 46.7677C60.2271 50.1552 59.8433 50.0474 60.6286 51.3295C62.0285 53.6346 57.7379 54.2471 55.2066 53.428C52.6717 52.6311 54.2167 51.9514 53.3162 50.9518C52.4152 49.9522 36.0936 25.2339 36.0936 25.2339C36.0936 25.2339 36.1607 24.666 38.3207 24.709Z" fill="#6CEA90"/>
<path d="M56.0418 54.6947C55.6286 54.6289 55.2412 54.5439 54.8847 54.4176C53.2051 53.8726 52.5366 53.1876 52.5734 51.9212C52.5825 51.7145 52.5825 51.7145 52.5243 51.6357C51.6238 50.6362 37.9378 29.9239 35.2048 25.7866L34.9955 25.4752L35.0333 25.0884C35.1384 24.1333 36.1581 23.6476 38.0425 23.6466C39.8037 22.7933 43.1604 22.1245 44.9532 25.0707C45.789 26.4766 45.9863 27.4565 46.1315 28.1739C46.285 28.9849 46.3128 29.1051 47.4876 29.5697C49.7676 30.4879 49.7789 32.3411 49.7863 33.476C49.7789 34.262 49.8317 34.5246 50.0239 34.6476C50.3893 34.8676 51.0286 34.9928 51.6453 35.1138C53.2655 35.4413 56.0079 35.9703 55.5719 39.3021C55.2566 41.7275 55.4184 41.8923 56.1256 42.6296C56.2648 42.7903 56.4271 42.9552 56.6085 43.1465C56.7673 43.3337 57.49 43.3792 57.9567 43.4073C59.1926 43.4884 61.7745 43.6914 61.5542 46.8495C61.4848 47.8793 61.3924 48.6056 61.3325 49.1279C61.2095 50.1959 61.2095 50.1959 61.5633 50.784C62.1428 51.7325 62.149 52.7286 61.5333 53.4868C60.4575 54.773 57.9716 55.0019 56.0418 54.6947ZM54.7154 52.077C54.8 52.1366 55.0386 52.2669 55.5331 52.4152C57.3931 53.0123 59.6058 52.578 59.8384 52.1522C59.8384 52.1522 59.8301 52.0585 59.7171 51.8786C59.0252 50.7504 59.0316 50.2653 59.2013 48.9043C59.2577 48.4042 59.3459 47.7007 59.4087 46.716C59.4714 45.7313 59.3442 45.6415 57.8065 45.5352C56.8272 45.4717 55.733 45.3903 54.9944 44.5551C54.832 44.3907 54.6929 44.2295 54.5733 44.0948C53.4218 42.8934 53.0402 42.1846 53.4479 39.0335C53.6224 37.7884 53.1849 37.5802 51.2658 37.2052C50.4653 37.0544 49.6224 36.874 48.934 36.4634C47.6648 35.7061 47.6826 34.4133 47.6651 33.4849C47.6536 32.3727 47.6337 31.9067 46.7244 31.5533C44.6438 30.713 44.3101 29.8499 44.0641 28.5846C43.9277 27.9615 43.8057 27.2479 43.1525 26.172C41.8655 24.0467 39.007 25.581 38.9003 25.6569L38.6418 25.801L38.359 25.8021C38.1488 25.792 37.9577 25.8078 37.7934 25.8049C44.2654 35.6044 53.4622 49.4475 54.1777 50.2785C54.8004 50.9562 54.7843 51.6479 54.7727 52.016C54.7035 52.0055 54.7226 52.0319 54.7154 52.077Z" fill="#4C2F1B"/>
<path d="M33.8789 25.8298L29.758 51.7127C29.5747 52.8634 30.3691 53.9389 31.5406 54.1255L57.7526 58.2988C59.636 58.5987 60.9572 56.5182 59.8363 54.9751L37.7423 24.9412C36.6185 23.42 34.1735 23.9797 33.8789 25.8298Z" fill="#FFE9B8"/>
<path d="M31.3726 55.1837C29.6257 54.9055 28.4265 53.2836 28.6998 51.5675L32.8243 25.6624C33.0279 24.3836 33.9783 23.3742 35.2462 23.0915C35.6556 22.9979 36.0731 22.9839 36.4893 23.0502C37.3327 23.1845 38.1038 23.6497 38.6043 24.3276L60.6949 54.3833C61.4768 55.4412 61.5283 56.7861 60.8291 57.8931C60.1289 59.0035 58.8858 59.5647 57.5845 59.3575L31.3726 55.1842L31.3726 55.1837ZM36.1809 25.13C36.0104 25.1029 35.8653 25.128 35.779 25.1428L35.72 25.1552C35.1534 25.3296 34.9779 25.722 34.9304 26.0201L30.8095 51.9029C30.7178 52.4788 31.1353 53.0445 31.7221 53.1379L57.9336 57.3112C58.2375 57.3595 58.6727 57.3173 59.0171 56.8423C59.17 56.6321 59.3377 56.1426 58.9959 55.645L36.8808 25.5549C36.7092 25.3221 36.4668 25.1755 36.1809 25.13Z" fill="#4C2F1B"/>
<path d="M50.6256 32.9387C50.574 33.2626 50.7995 33.5683 51.1292 33.6208C51.4589 33.6733 51.7681 33.4532 51.8198 33.1288C51.8713 32.8049 51.6458 32.4997 51.316 32.4472C50.9863 32.3947 50.6771 32.6148 50.6256 32.9387Z" fill="#FF7461"/>
<path d="M53.0063 34.4054C52.9547 34.7292 53.1803 35.0345 53.51 35.087C53.8397 35.1394 54.1489 34.9194 54.2005 34.5955C54.252 34.2716 54.0266 33.9659 53.6968 33.9134C53.3671 33.8609 53.0579 34.081 53.0063 34.4054Z" fill="#FF7A6C"/>
<path d="M35.3458 40.733C35.2446 41.3686 35.687 41.9673 36.3341 42.0703C36.9811 42.1733 37.5876 41.7417 37.6888 41.1061C37.7543 40.6947 37.5917 40.2796 37.2618 40.0159C36.9323 39.7528 36.4857 39.6817 36.0903 39.8294C35.6948 39.9776 35.4113 40.3216 35.3458 40.733Z" fill="#FFD899"/>
<path d="M48.9247 52.4968C48.8235 53.1324 49.2659 53.7311 49.9129 53.8341C50.56 53.9371 51.1665 53.5055 51.2677 52.8699C51.3689 52.2343 50.9264 51.6356 50.2794 51.5326C49.6323 51.4296 49.0259 51.8612 48.9247 52.4968Z" fill="#FFD899"/>
<path d="M43.6451 44.53C43.5796 44.9414 43.7423 45.3565 44.0722 45.6202C44.4016 45.8833 44.8488 45.9545 45.2437 45.8067C45.6391 45.6585 45.9226 45.3145 45.9881 44.9031C46.0536 44.4921 45.891 44.0766 45.561 43.8134C45.2316 43.5503 44.7844 43.4791 44.3895 43.6269C43.9941 43.7746 43.7106 44.1191 43.6451 44.53Z" fill="#FFD899"/>
<path d="M42.7469 50.1714C42.6815 50.5823 42.8441 50.9979 43.174 51.2611C43.5035 51.5242 43.9506 51.5954 44.3455 51.4476C44.7409 51.2999 45.0245 50.9553 45.0899 50.5444C45.1554 50.133 44.9928 49.718 44.6629 49.4543C44.3334 49.1911 43.8863 49.1199 43.4914 49.2677C43.0959 49.416 42.8124 49.76 42.7469 50.1714Z" fill="#FFD899"/>
<path d="M40.1354 46.0072C40.07 46.4181 40.2331 46.8338 40.5625 47.0969C40.8925 47.3601 41.3392 47.4312 41.734 47.2834C42.1294 47.1357 42.413 46.7912 42.4784 46.3802C42.5439 45.9688 42.3813 45.5538 42.0513 45.2906C41.7219 45.027 41.2748 44.9558 40.8798 45.1041C40.4849 45.2518 40.2008 45.5963 40.1354 46.0072Z" fill="#FFD899"/>
<path d="M40.7528 37.5445C40.6873 37.956 40.8499 38.371 41.1798 38.6347C41.5093 38.8978 41.9564 38.969 42.3513 38.8212C42.7463 38.6729 43.0303 38.329 43.0958 37.9176C43.1612 37.5067 42.9987 37.0911 42.6687 36.8279C42.3387 36.5647 41.8921 36.4936 41.4972 36.6414C41.1019 36.7886 40.8182 37.1336 40.7528 37.5445Z" fill="#FFD899"/>
<path d="M34.1346 44.9361C34.0334 45.5717 34.4759 46.1704 35.1229 46.2734C35.77 46.3764 36.3764 45.9448 36.4776 45.3092C36.5431 44.8983 36.3805 44.4827 36.0505 44.2195C35.7211 43.9564 35.2739 43.8852 34.879 44.033C34.4836 44.1807 34.2001 44.5252 34.1346 44.9361Z" fill="#FFE3B6"/>
<path d="M36.0695 49.5016C36.004 49.913 36.1666 50.328 36.4965 50.5918C36.826 50.8549 37.2732 50.9261 37.668 50.7783C38.0635 50.6301 38.347 50.286 38.4125 49.8746C38.4779 49.4637 38.3154 49.0481 37.9854 48.7849C37.6559 48.5218 37.2088 48.4506 36.8139 48.5984C36.4185 48.7461 36.1349 49.0907 36.0695 49.5016Z" fill="#FFE3B6"/>
<path d="M47.6519 48.3611C47.5507 48.9967 47.9931 49.5953 48.6402 49.6984C49.2872 49.8014 49.8937 49.3697 49.9949 48.7341C50.0961 48.0985 49.6537 47.4999 49.0066 47.3968C48.3596 47.2933 47.7531 47.7255 47.6519 48.3611Z" fill="#FFE3B6"/>
<path d="M36.448 36.0264C36.3468 36.662 36.7898 37.2607 37.4363 37.3636C38.0834 37.4667 38.6898 37.035 38.791 36.3994C38.8565 35.988 38.6939 35.5729 38.364 35.3092C38.034 35.046 37.5874 34.9749 37.1925 35.1227C36.7975 35.271 36.5135 35.615 36.448 36.0264Z" fill="#FFE3B6"/>
</g>
<defs>
<filter id="filter0_d_52_15" x="2.69873" y="0.82666" width="94.6025" height="100.347" filterUnits="userSpaceOnUse" color-interpolation-filters="sRGB">
<feFlood flood-opacity="0" result="BackgroundImageFix"/>
<feColorMatrix in="SourceAlpha" type="matrix" values="0 0 0 0 0 0 0 0 0 0 0 0 0 0 0 0 0 0 127 0" result="hardAlpha"/>
<feOffset dy="4"/>
<feGaussianBlur stdDeviation="2"/>
<feComposite in2="hardAlpha" operator="out"/>
<feColorMatrix type="matrix" values="0 0 0 0 0 0 0 0 0 0 0 0 0 0 0 0 0 0 0.25 0"/>
<feBlend mode="normal" in2="BackgroundImageFix" result="effect1_dropShadow_52_15"/>
<feBlend mode="normal" in="SourceGraphic" in2="effect1_dropShadow_52_15" result="shape"/>
</filter>
<clipPath id="clip0_52_15">
<rect width="36.5883" height="36.2155" fill="white" transform="translate(33.6943 19) rotate(9.04645)"/>
</clipPath>
</defs>
</svg>
