<svg width="127" height="85" viewBox="0 0 127 85" fill="none" xmlns="http://www.w3.org/2000/svg">
<path d="M81.8301 46.0427C75.6777 35.3472 83.3979 22 95.7366 22V22C101.879 22 107.483 25.5074 110.167 31.0324L127 65.68L120.29 70.152C110.668 76.5654 97.6278 73.5059 91.8618 63.4822L81.8301 46.0427Z" fill="black"/>
<rect x="48" y="14" width="69" height="68" rx="34" fill="#FDD015"/>
<rect x="29" y="10" width="78" height="69" rx="34.5" fill="black"/>
<rect x="16" y="4" width="81" height="75" rx="37.5" fill="#FDD015"/>
<rect x="7" width="81" height="79" rx="39.5" fill="black"/>
<rect width="75" height="75" rx="37.5" fill="#FDD015"/>
<rect y="14" width="20" height="23" rx="10" fill="#D9D9D9"/>
<rect x="37" y="14" width="20" height="23" rx="10" fill="#D9D9D9"/>
<ellipse cx="8.5" cy="27.5" rx="1.5" ry="2.5" fill="black"/>
<ellipse cx="44.5" cy="28.5" rx="1.5" ry="2.5" fill="black"/>
</svg>
