<svg width="180" height="85" viewBox="0 0 180 85" fill="none" xmlns="http://www.w3.org/2000/svg">
<path d="M87.8301 46.0427C81.6777 35.3472 89.3979 22 101.737 22V22C107.879 22 113.483 25.5074 116.167 31.0324L133 65.68L126.29 70.152C116.668 76.5654 103.628 73.5059 97.8618 63.4822L87.8301 46.0427Z" fill="black"/>
<rect x="44" y="10" width="80" height="75" rx="37.5" fill="#FDD015"/>
<rect x="28" y="10" width="86" height="69" rx="34.5" fill="black"/>
<rect x="22" y="4" width="81" height="75" rx="37.5" fill="#FDD015"/>
<rect x="13" width="81" height="79" rx="39.5" fill="black"/>
<rect x="6" width="75" height="75" rx="37.5" fill="#FDD015"/>
<rect x="6" y="14" width="20" height="23" rx="10" fill="#D9D9D9"/>
<rect x="43" y="14" width="20" height="23" rx="10" fill="#D9D9D9"/>
<ellipse cx="14.5" cy="27.5" rx="1.5" ry="2.5" fill="black"/>
<ellipse cx="50.5" cy="28.5" rx="1.5" ry="2.5" fill="black"/>
<rect x="70" y="26" width="11" height="4" fill="#B7C5F8"/>
<rect x="1" y="13" width="68" height="26" rx="9" fill="#D9D9D9" fill-opacity="0.44" stroke="#3E43B4" stroke-width="2"/>
</svg>
